<?xml version="1.0" encoding="utf-8" ?>
<svg baseProfile="tiny" height="100%" version="1.2" width="100%" xmlns="http://www.w3.org/2000/svg" xmlns:ev="http://www.w3.org/2001/xml-events" xmlns:xlink="http://www.w3.org/1999/xlink"><defs /><circle cx="0" cy="0" fill="lightblue" r="20" stroke="black" stroke-width="2" /><text fill="black" font-size="12px" x="-15" y="5">RouterA</text><circle cx="0" cy="0" fill="lightblue" r="20" stroke="black" stroke-width="2" /><text fill="black" font-size="12px" x="-15" y="5">Switch1</text><circle cx="0" cy="0" fill="lightblue" r="20" stroke="black" stroke-width="2" /><text fill="black" font-size="12px" x="-15" y="5">Switch2</text><line stroke="black" stroke-width="2" x1="0" x2="0" y1="0" y2="0" /><line stroke="black" stroke-width="2" x1="0" x2="0" y1="0" y2="0" /><line stroke="black" stroke-width="2" x1="0" x2="0" y1="0" y2="0" /><circle cx="-109.1258" cy="283.4063" fill="lightblue" r="20" stroke="black" stroke-width="2" /><line stroke="black" stroke-width="2" x1="-109.1258" x2="300.0" y1="283.4063" y2="-47.1974" /><line stroke="black" stroke-width="2" x1="-109.1258" x2="-190.8742" y1="283.4063" y2="-236.2089" /><circle cx="300.0" cy="-47.1974" fill="lightblue" r="20" stroke="black" stroke-width="2" /><line stroke="black" stroke-width="2" x1="300.0" x2="-109.1258" y1="-47.1974" y2="283.4063" /><line stroke="black" stroke-width="2" x1="300.0" x2="-190.8742" y1="-47.1974" y2="-236.2089" /><circle cx="-190.8742" cy="-236.2089" fill="lightblue" r="20" stroke="black" stroke-width="2" /><line stroke="black" stroke-width="2" x1="-190.8742" x2="-109.1258" y1="-236.2089" y2="283.4063" /><line stroke="black" stroke-width="2" x1="-190.8742" x2="300.0" y1="-236.2089" y2="-47.1974" /></svg>